<svg clip-rule="evenodd" fill-rule="evenodd" stroke-linejoin="round" stroke-miterlimit="2" viewBox="0 0 200 200" xmlns="http://www.w3.org/2000/svg"><path d="m32 147c-2-3-3-10-4-21l.143-12.913-3.143-.087c-2.027-.152-8-1-11-5-3-5-4.468-9.032-1-10 .277 0 .821-.376 1.494-.487 1.758-.29 4.613-.513 7.506-.513h7v-18c0-19 0-20 4-19 3 0 8 5 10 8 1 2 1 7 1 16 0 12-.568 11.445 1.432 11.445 1.514 0 4.568-.445 5.568-.445 2 0 2 0 2-16 0-20 0-21 6-19 2 1 5 4 7 6 2 4 3 5 3 16 0 8 0 11 1 11h8v-16l1-16 3-1c2 0 3 1 6 4 5 4 5 5 5 17v10h5c2 0 4 0 4-1v-14c0-7 0-14 1-15 2-4 9 0 13 7 1 1 1 6 2 12l.121 10.275 6.865.793c.633.112 8.472 1.384 9.056 1.973.698.701 1.261 2.116-1.042 3.959-1.104.883-5.214 1.738-9 3-3 1-6 2-6 2-1 0-1 6-2 13-2 20-5 33-9 33-3 0-4-7-5-25l.02-18.158-2.961.447c-1.373.135-3.929.413-5.059.711-.967.255-2 2-3 14-2 18-5 28-8 28-4 0-7-15-6-29l1.106-10.796-2.14.329c-2.046.347-2.936.522-5.922.964l-3.044.503-1 11c-2 17-5 27-8 27-3-1-5-10-5-23v-13h-4c-3 0-5.916-.232-6.024.587 0 0-.461 4.297-.976 8.413-1 8-4 19-5 23-2 4-4 5-5 3zm118-1c-2-4-3-15-3-48 1-20 1-36 1-37 0 0 1-1 3-1 3 0 5 1 7 4 2 2 4 5 5 7 1 4-1 36-2 50-3 20-8 31-11 25zm24-2c-1-4-1-8-1-43 0-23 1-40 1-41 2-2 10 2 13 8 2 5 1 39-3 62-1 10-4 18-6 18-1 0-3-2-4-4z" fill-rule="nonzero" transform="translate(.505611 -3.64247)"/></svg>