<?xml version="1.0" encoding="UTF-8" standalone="no"?>
<!DOCTYPE svg PUBLIC "-//W3C//DTD SVG 1.1//EN" "http://www.w3.org/Graphics/SVG/1.1/DTD/svg11.dtd">
<svg width="100%" height="100%" viewBox="0 0 200 200" version="1.1" xmlns="http://www.w3.org/2000/svg" xmlns:xlink="http://www.w3.org/1999/xlink" xml:space="preserve" xmlns:serif="http://www.serif.com/" style="fill-rule:evenodd;clip-rule:evenodd;stroke-linejoin:round;stroke-miterlimit:2;">
    <g transform="matrix(1,0,0,1,0.505611,-3.64247)">
        <path d="M32,147C30,144 29,137 28,126L28.143,113.087L25,113C22.973,112.848 17,112 14,108C11,103 9.532,98.968 13,98C13.277,98 13.821,97.624 14.494,97.513C16.252,97.223 19.107,97 22,97L29,97L29,79C29,60 29,59 33,60C36,60 41,65 43,68C44,70 44,75 44,84C44,96 43.432,95.445 45.432,95.445C46.946,95.445 50,95 51,95C53,95 53,95 53,79C53,59 53,58 59,60C61,61 64,64 66,66C68,70 69,71 69,82C69,90 69,93 70,93L78,93L78,77L79,61L82,60C84,60 85,61 88,64C93,68 93,69 93,81L93,91L98,91C100,91 102,91 102,90L102,76C102,69 102,62 103,61C105,57 112,61 116,68C117,69 117,74 118,80L118.121,90.275L124.986,91.068C125.619,91.18 133.458,92.452 134.042,93.041C134.74,93.742 135.303,95.157 133,97C131.896,97.883 127.786,98.738 124,100C121,101 118,102 118,102C117,102 117,108 116,115C114,135 111,148 107,148C104,148 103,141 102,123L102.02,104.842L99.059,105.289C97.686,105.424 95.13,105.702 94,106C93.033,106.255 92,108 91,120C89,138 86,148 83,148C79,148 76,133 77,119L78.106,108.204L75.966,108.533C73.92,108.88 73.03,109.055 70.044,109.497L67,110L66,121C64,138 61,148 58,148C55,147 53,138 53,125L53,112L49,112C46,112 43.084,111.768 42.976,112.587C42.976,112.587 42.515,116.884 42,121C41,129 38,140 37,144C35,148 33,149 32,147ZM150,146C148,142 147,131 147,98C148,78 148,62 148,61C148,61 149,60 151,60C154,60 156,61 158,64C160,66 162,69 163,71C164,75 162,107 161,121C158,141 153,152 150,146ZM174,144C173,140 173,136 173,101C173,78 174,61 174,60C176,58 184,62 187,68C189,73 188,107 184,130C183,140 180,148 178,148C177,148 175,146 174,144Z" fill-rule="nonzero" fill="#000"/>
    </g>
</svg>
